<?xml version="1.0" encoding="UTF-8"?>
<svg version="1.1" xmlns="http://www.w3.org/2000/svg" width="1254" height="1254">
<path d="M0 0 C413.82 0 827.64 0 1254 0 C1254 413.82 1254 827.64 1254 1254 C840.18 1254 426.36 1254 0 1254 C0 840.18 0 426.36 0 0 Z " fill="#9F0223" transform="translate(0,0)"/>
<path d="M0 0 C238.26 0 476.52 0 722 0 C722 63.03 722 126.06 722 191 C483.74 191 245.48 191 0 191 C0 127.97 0 64.94 0 0 Z " fill="#FCF8F9" transform="translate(273,710)"/>
<path d="M0 0 C33.99 0 67.98 0 103 0 C103.99 6.27 104.98 12.54 106 19 C107.23955928 24.89978661 107.23955928 24.89978661 108.50537109 30.79394531 C109.92036942 37.30627417 111.00486133 43.85894693 112.0625 50.4375 C113.17642037 57.36371695 114.43244912 64.11057451 116.28125 70.8828125 C117.47852427 76.07533896 118.17544115 81.34686814 118.91040039 86.62207031 C119.73044012 92.46667473 120.78523488 98.22500765 122 104 C122.30949585 105.47194824 122.30949585 105.47194824 122.62524414 106.97363281 C123.0846746 109.15338068 123.5444056 111.33306523 124.00439453 113.51269531 C129.02871566 137.43333354 133.39623668 161.46229467 137.140625 185.6171875 C137.99654534 191.09628319 138.98293089 196.54877374 140 202 C140.18062988 201.01644531 140.36125977 200.03289062 140.54736328 199.01953125 C141.2474713 195.20831441 141.94827 191.39722485 142.64932251 187.58618164 C142.96631702 185.86273372 143.2831913 184.13926367 143.59994507 182.41577148 C145.29014689 173.22128036 146.98739249 164.02838173 148.73046875 154.84375 C148.86557861 154.13025391 149.00068848 153.41675781 149.13989258 152.68164062 C149.77126016 149.34820449 150.40556013 146.01541775 151.04541016 142.68359375 C152.3826194 135.63473881 153.51541927 128.58909358 154.49731445 121.48242188 C155.34195668 115.63104898 156.38761285 109.81748675 157.4375 104 C157.65776855 102.76958984 157.87803711 101.53917969 158.10498047 100.27148438 C159.36615557 93.29193194 160.75154633 86.37098786 162.3125 79.453125 C163.42589056 73.86086787 164.21088994 68.21860077 164.99853516 62.57226562 C165.11503418 61.74919922 165.2315332 60.92613281 165.3515625 60.078125 C165.50359131 58.97065918 165.50359131 58.97065918 165.65869141 57.84082031 C166 56 166 56 167 54 C167.30485617 52.27650623 167.56754187 50.54552152 167.8125 48.8125 C168.88856723 41.55306136 170.14099441 34.32983039 171.4152832 27.1027832 C173.00189734 18.07697678 174.49312587 9.0412448 176 0 C210.32 0 244.64 0 280 0 C280 112.2 280 224.4 280 340 C257.23 340 234.46 340 211 340 C211 262.12 211 184.24 211 104 C210.34 104 209.68 104 209 104 C208.87044922 105.35351562 208.87044922 105.35351562 208.73828125 106.734375 C207.6237144 117.50666359 205.81581618 128.11252861 203.8527832 138.76074219 C202.64514651 145.31741424 201.52968512 151.87528506 200.53613281 158.46777344 C197.41303603 179.04380451 194.0699279 199.58890977 190 220 C187.65934788 231.85771989 185.76547203 243.75291868 183.96484375 255.703125 C181.36291541 272.78868085 181.36291541 272.78868085 179.52246094 279.75585938 C178.257139 285.19083099 177.50775372 290.74280483 176.625 296.25 C175.02425149 306.10966109 173.32458834 315.93347371 171.25634766 325.70800781 C171.10472168 326.43084961 170.9530957 327.15369141 170.796875 327.8984375 C170.66635742 328.50349121 170.53583984 329.10854492 170.40136719 329.73193359 C169.79941085 333.13349949 169.42846779 336.57225769 169 340 C150.52 340 132.04 340 113 340 C111.48049587 335.44148761 110.59087684 331.91370648 110 327.25 C109.06807811 320.34366411 107.81230178 313.59608195 106.27734375 306.80078125 C104.9337999 300.77171263 103.79847396 294.82278736 103.0625 288.6875 C102.40279671 283.37716114 101.42215359 278.24864595 100.125 273.0625 C97.6328116 263.06104664 96.09434894 252.92008036 94.45263672 242.75146484 C93.16984395 234.95369002 91.66349116 227.19600207 90.06640625 219.45703125 C87.88980279 208.86722406 86.01251802 198.26733439 84.39477539 187.57641602 C83.64557447 182.69618808 82.80034559 177.93484843 81.53564453 173.16308594 C80.31623871 168.23877621 79.44709934 163.23231654 78.5 158.25 C78.18095703 156.59484375 78.18095703 156.59484375 77.85546875 154.90625 C76.63631552 148.53374352 75.50827369 142.15321137 74.45996094 135.75048828 C74.05059645 133.30255816 73.61116559 130.8640861 73.1484375 128.42578125 C71.78297241 121.20150838 70.59696347 114.38900301 71 107 C70.34 107 69.68 107 69 107 C69 183.89 69 260.78 69 340 C46.23 340 23.46 340 0 340 C0 227.8 0 115.6 0 0 Z " fill="#FDFCFC" transform="translate(233,324)"/>
<path d="M0 0 C25.08 0 50.16 0 76 0 C76.01458252 7.7329248 76.02916504 15.46584961 76.04418945 23.43310547 C76.09297538 48.19217277 76.15639239 72.95118191 76.22898628 97.71019017 C76.24025408 101.55776969 76.25139259 105.40534957 76.26245117 109.25292969 C76.26465486 110.01889458 76.26685854 110.78485947 76.269129 111.57403542 C76.30447501 123.96683371 76.32935435 136.35963193 76.35034702 148.7524619 C76.37213057 161.47423005 76.40520521 174.19593295 76.44870156 186.91764557 C76.47517433 194.76389787 76.49290189 202.6100689 76.49934604 210.45636363 C76.50523716 216.47889819 76.52685848 222.50127293 76.55427551 228.52375221 C76.5630581 230.98997656 76.56677787 233.45622502 76.56500816 235.92246437 C76.56335224 239.29543583 76.5800829 242.66784655 76.60127258 246.04074097 C76.59642501 247.01158626 76.59157743 247.98243156 76.58658296 248.98269641 C76.68893328 258.88750183 78.86953565 267.81774051 86 275 C92.88910763 279.27124673 100.02917427 279.88119681 108 279 C115.62025132 276.35344565 120.18425297 271.63149406 123.75 264.5 C126.11490759 257.87825875 126.15124611 251.54578477 126.15821838 244.59768677 C126.16315636 243.55125437 126.16809434 242.50482197 126.17318195 241.42667949 C126.18853637 237.92133608 126.19691204 234.41601097 126.20532227 230.91064453 C126.2149024 228.39747456 126.22491256 225.8843062 126.23532104 223.37113953 C126.25675968 217.96098494 126.27520678 212.55083332 126.29092598 207.14065933 C126.31365836 199.3185009 126.34179647 191.49636923 126.37124526 183.67423354 C126.41887993 170.98270398 126.46215526 158.29116346 126.50268555 145.59960938 C126.54206148 133.27245227 126.58349272 120.94530488 126.62768555 108.61816406 C126.63040982 107.85805653 126.63313409 107.097949 126.63594092 106.31480791 C126.64962074 102.50149342 126.66334095 98.68817908 126.67708123 94.87486482 C126.79098119 63.24992899 126.89700108 31.62497367 127 0 C152.41 0 177.82 0 204 0 C204.11049847 33.11316203 204.20271411 66.22614322 204.25532665 99.33943451 C204.2615792 103.2603883 204.26805091 107.18134171 204.2746582 111.10229492 C204.27662553 112.27304274 204.27662553 112.27304274 204.2786326 113.46744203 C204.30031161 126.05845868 204.33969106 138.64935966 204.38576398 151.24030799 C204.43273877 164.18696391 204.46033948 177.13355979 204.47044247 190.08029741 C204.47725841 198.05101499 204.49868035 206.02140547 204.53958233 213.99202221 C204.56946514 220.13305597 204.57222179 226.27384718 204.56553841 232.4149437 C204.56690004 234.91282968 204.57665682 237.41072948 204.59602737 239.90854073 C204.81948538 270.24297338 199.16196431 296.02104925 178.140625 318.84765625 C165.73052115 331.32569862 149.46307353 339.07905322 132.5 343.1875 C131.81180176 343.35475586 131.12360352 343.52201172 130.41455078 343.69433594 C100.6377612 350.50487258 66.74843713 346.81465142 40.375 331.25 C34.31876502 327.39340114 29.07555567 323.06681977 24 318 C22.95392578 316.97132813 22.95392578 316.97132813 21.88671875 315.921875 C6.16121298 299.43299516 -0.18451116 276.39386469 -0.12025452 254.09779358 C-0.12110894 253.00967123 -0.12196337 251.92154888 -0.12284368 250.80045313 C-0.12448877 247.16000205 -0.11899299 243.51959721 -0.11352539 239.87915039 C-0.11324328 237.26731365 -0.11340171 234.65547683 -0.1139679 232.04364014 C-0.11449149 226.42341192 -0.11136188 220.80319534 -0.10573006 215.18297005 C-0.09759276 207.05713256 -0.09499755 198.93130068 -0.09374207 190.80545955 C-0.09155505 177.62087284 -0.08490446 164.43629233 -0.07543945 151.25170898 C-0.06625627 138.44637076 -0.05917987 125.64103422 -0.05493164 112.83569336 C-0.05466892 112.0459786 -0.05440619 111.25626383 -0.05413551 110.44261832 C-0.05283044 106.48073389 -0.05156674 102.51884944 -0.05032361 98.55696499 C-0.03996191 65.70463784 -0.02152947 32.85232221 0 0 Z " fill="#FDFCFC" transform="translate(538,324)"/>
<path d="M0 0 C25.74 0 51.48 0 78 0 C78.06618321 34.70172513 78.12155768 69.40338882 78.15319599 104.10515811 C78.15694794 108.20552218 78.16083092 112.30588612 78.16479492 116.40625 C78.16558185 117.22253072 78.16636878 118.03881144 78.16717956 118.87982795 C78.18022008 132.08285559 78.20386644 145.2858439 78.23145839 158.48884824 C78.25955032 172.04453249 78.27618426 185.60019619 78.28226548 199.15590835 C78.28637408 207.51503845 78.29933307 215.87405734 78.3237494 224.23315319 C78.33965339 229.97161647 78.34438985 235.71002257 78.34050413 241.44850627 C78.3385898 244.75531446 78.34310605 248.06188902 78.35761642 251.36867142 C78.37261659 254.96421572 78.36892582 258.55929025 78.36076355 262.15484619 C78.36950207 263.18601193 78.3782406 264.21717766 78.38724393 265.27959085 C78.34285251 272.55047237 77.01792081 279.02962739 75 286 C74.78752804 286.77097842 74.57505607 287.54195683 74.35614556 288.33629823 C68.8176024 307.83267719 56.27094523 324.19531947 38.65917969 334.12792969 C14.53407131 347.08663301 -15.56385542 350.37541117 -42 343 C-62.99811127 335.97849088 -80.56751625 323.86694262 -91.140625 303.93359375 C-98.09334223 289.87999848 -100.15962742 276.49326371 -100.09765625 260.97265625 C-100.09664917 259.78055542 -100.09564209 258.58845459 -100.09460449 257.36022949 C-100.08939151 252.92764314 -100.07543029 248.49507056 -100.0625 244.0625 C-100.041875 234.141875 -100.02125 224.22125 -100 214 C-77.56 214 -55.12 214 -32 214 C-31.75 241.5625 -31.75 241.5625 -31.70214844 250.22875977 C-31.67277053 252.50799572 -31.64194329 254.78721365 -31.609375 257.06640625 C-31.60768311 258.82639954 -31.60768311 258.82639954 -31.60595703 260.62194824 C-31.48966163 267.28836957 -31.02198164 271.59681239 -27 277 C-23.8030894 279.90628236 -21.1401404 280.88822153 -16.8125 281.3125 C-12.25297809 280.9387687 -8.49223186 280.05300269 -5 277 C-0.99713296 270.46575739 -0.42360311 265.39696512 -0.48101807 257.82568359 C-0.47351681 256.72037261 -0.46601556 255.61506163 -0.458287 254.47625637 C-0.43803491 250.78345784 -0.4461081 247.09127474 -0.45410156 243.3984375 C-0.44536521 240.74702218 -0.43505403 238.09565646 -0.42277527 235.44425964 C-0.39949817 229.74163131 -0.39071316 224.03913002 -0.39188385 218.3364563 C-0.39355532 210.09146772 -0.37319576 201.84664815 -0.34752855 193.60170472 C-0.30647645 180.2235731 -0.28314199 166.84547195 -0.27099609 153.46728516 C-0.25916228 140.47474236 -0.23895527 127.48225689 -0.20751953 114.48974609 C-0.20558343 113.68834607 -0.20364733 112.88694605 -0.20165256 112.06126118 C-0.19188776 108.04071074 -0.18195869 104.02016073 -0.17194796 99.9996109 C-0.08916427 66.66641657 -0.03842682 33.33328232 0 0 Z " fill="#FCFBFB" transform="translate(854,324)"/>
<path d="M0 0 C25.41 0 50.82 0 77 0 C77 112.2 77 224.4 77 340 C51.59 340 26.18 340 0 340 C0 227.8 0 115.6 0 0 Z " fill="#FDFBFB" transform="translate(958,324)"/>
<path d="M0 0 C8.25 0 16.5 0 25 0 C25 4.95 25 9.9 25 15 C41.17 15 57.34 15 74 15 C74 40.74 74 66.48 74 93 C71.525 93.495 71.525 93.495 69 94 C74.445 97.96 74.445 97.96 80 102 C76.37361226 105.72075471 72.60102186 109.15744011 68.625 112.5 C68.05354248 112.98122314 67.48208496 113.46244629 66.89331055 113.95825195 C56.08102132 123 56.08102132 123 53 123 C56.30083858 126.64964018 60.01879387 127.7954743 64.5625 129.4375 C65.39499268 129.74244385 66.22748535 130.0473877 67.08520508 130.36157227 C75.56009492 133.3657042 84.18318162 135.30405286 93 137 C91.43303397 141.31530959 89.25764831 145.18199304 86.9375 149.125 C84.11484561 153.89033897 84.11484561 153.89033897 82 159 C61.48901891 158.11015266 39.66851127 145.76390474 24 133 C22.58074219 131.88625 22.58074219 131.88625 21.1328125 130.75 C9.14065443 120.69425272 0.93142456 107.33427603 -5 93 C-11.6 92.67 -18.2 92.34 -25 92 C-25 104.21 -25 116.42 -25 129 C-15.5073405 127.22012634 -7.12974607 125.63734228 1.9140625 122.76953125 C5 122 5 122 11 122 C11.495 132.395 11.495 132.395 12 143 C1.88496405 146.37167865 1.88496405 146.37167865 -2.40234375 147.3515625 C-3.31177734 147.56296875 -4.22121094 147.774375 -5.15820312 147.9921875 C-6.53395508 148.30542969 -6.53395508 148.30542969 -7.9375 148.625 C-9.80129268 149.05246371 -11.66460137 149.48204494 -13.52734375 149.9140625 C-14.33937256 150.0992041 -15.15140137 150.2843457 -15.98803711 150.47509766 C-18.05064304 150.93909683 -18.05064304 150.93909683 -20 152 C-21.66171801 152.29970271 -23.32981403 152.56429181 -25 152.8125 C-30.39952029 153.66915466 -35.68045432 154.82104949 -41 156.0625 C-47.99812143 157.68078801 -54.81387453 158.65162469 -62 159 C-62.83885377 155.56382292 -63.67012919 152.12585663 -64.5 148.6875 C-64.73847656 147.71103516 -64.97695313 146.73457031 -65.22265625 145.72851562 C-65.44824219 144.79072266 -65.67382812 143.85292969 -65.90625 142.88671875 C-66.11572266 142.02264404 -66.32519531 141.15856934 -66.54101562 140.26831055 C-67 138 -67 138 -67 135 C-60.73 134.34 -54.46 133.68 -48 133 C-48.33 94.39 -48.66 55.78 -49 16 C-32.5 16 -16 16 1 16 C0.67 10.72 0.34 5.44 0 0 Z " fill="#9F0626" transform="translate(713,726)"/>
<path d="M0 0 C5.44558342 -0.49946752 10.60984209 0.48651238 15.9375 1.5 C17.10635742 1.71462891 17.10635742 1.71462891 18.29882812 1.93359375 C20.2002421 2.28354724 22.10027393 2.64099665 24 3 C22 7 20 11 18 15 C52.32 15 86.64 15 122 15 C122 21.93 122 28.86 122 36 C117.71 36 113.42 36 109 36 C109 42.6 109 49.2 109 56 C115.93 56 122.86 56 130 56 C130 62.6 130 69.2 130 76 C123.4 76 116.8 76 110 76 C110 82.27 110 88.54 110 95 C115.61 95 121.22 95 127 95 C127 101.93 127 108.86 127 116 C122.05 116 117.1 116 112 116 C113.11375 117.670625 114.2275 119.34125 115.375 121.0625 C132 146 132 146 131.84326172 148.02416992 C130.79351719 150.48380584 129.76149155 151.20255349 127.5078125 152.61328125 C126.80269531 153.05607422 126.09757813 153.49886719 125.37109375 153.95507812 C124.62988281 154.40302734 123.88867188 154.85097656 123.125 155.3125 C122.39152344 155.77978516 121.65804687 156.24707031 120.90234375 156.72851562 C116.80781945 159.25309937 116.80781945 159.25309937 115 160 C111.56736892 158.85578964 111.42894594 158.49502522 109.8359375 155.45703125 C109.43995361 154.71912354 109.04396973 153.98121582 108.63598633 153.22094727 C108.21986084 152.42615967 107.80373535 151.63137207 107.375 150.8125 C103.7678895 144.07765828 99.97404176 137.60026485 95.60498047 131.3293457 C94.51953125 129.72265625 94.51953125 129.72265625 93 127 C94 124 94 124 107 117 C63.44 116.67 19.88 116.34 -25 116 C-25 109.07 -25 102.14 -25 95 C-18.73 95 -12.46 95 -6 95 C-6 88.73 -6 82.46 -6 76 C-13.59 76 -21.18 76 -29 76 C-29 69.4 -29 62.8 -29 56 C-21.08 56 -13.16 56 -5 56 C-5 51.05 -5 46.1 -5 41 C-5.66 41 -6.32 41 -7 41 C-7.33 41.99 -7.66 42.98 -8 44 C-9.99609375 45.82421875 -9.99609375 45.82421875 -12.4375 47.6875 C-13.24058594 48.31011719 -14.04367187 48.93273437 -14.87109375 49.57421875 C-17 51 -17 51 -19 51 C-20.296875 49.49609375 -20.296875 49.49609375 -21.75 47.4375 C-24.2879656 43.90314791 -27.00446213 40.69955249 -29.99609375 37.54296875 C-30.49302734 36.77919922 -30.49302734 36.77919922 -31 36 C-29.83608779 32.50826337 -28.98186738 32.02569424 -26.0625 29.9375 C-16.01039565 22.30682174 -8.82242467 13.48359653 -2 3 C-1.34 2.01 -0.68 1.02 0 0 Z " fill="#9F0726" transform="translate(319,724)"/>
<path d="M0 0 C24.42 0 48.84 0 74 0 C74.20081834 28.58760664 74.20081834 28.58760664 74.25126934 42.7467823 C74.27893602 50.39303305 74.31401534 58.03900995 74.37719727 65.68505859 C74.4325713 72.38945045 74.46144781 79.09348469 74.47438622 85.79811478 C74.48360308 88.35211473 74.5016015 90.90609903 74.52865028 93.45997238 C74.56510765 97.04577034 74.56993809 100.63035421 74.56762695 104.21630859 C74.58560333 105.2650415 74.60357971 106.31377441 74.62210083 107.39428711 C74.57311121 114.44900703 73.22650322 120.22073319 69 126 C62.1352367 131.29399593 55.2825818 131.66014174 46.875 131.3125 C45.2971875 131.27866211 45.2971875 131.27866211 43.6875 131.24414062 C41.12344757 131.18586671 38.56252924 131.10412878 36 131 C35.87447754 130.33468262 35.74895508 129.66936523 35.61962891 128.98388672 C34.770687 124.59355285 33.94412414 120.32518077 32.375 116.125 C31.21469743 113.0117129 31 111.49499513 31 108 C32.21558594 107.93941406 33.43117188 107.87882813 34.68359375 107.81640625 C36.26824228 107.73201668 37.85287702 107.6473679 39.4375 107.5625 C40.23994141 107.52318359 41.04238281 107.48386719 41.86914062 107.44335938 C45.75239561 107.5945704 45.75239561 107.5945704 49 106 C49.12507482 103.38399547 49.18605405 100.79308066 49.20532227 98.17553711 C49.21522186 97.35609116 49.22512146 96.5366452 49.23532104 95.69236755 C49.26703055 92.97072283 49.29173062 90.24906061 49.31640625 87.52734375 C49.33696763 85.64546747 49.35796388 83.76359589 49.37937927 81.88172913 C49.43468426 76.91856689 49.48405623 71.9553624 49.53222656 66.99212646 C49.58238022 61.93156149 49.63809824 56.8710582 49.69335938 51.81054688 C49.80104397 41.87374855 49.90195199 31.93689809 50 22 C41.09 22 32.18 22 23 22 C23 63.91 23 105.82 23 149 C15.41 149 7.82 149 0 149 C0 99.83 0 50.66 0 0 Z " fill="#A00827" transform="translate(548,736)"/>
<path d="M0 0 C34.98 0 69.96 0 106 0 C105.67 21.12 105.34 42.24 105 64 C70.35 64 35.7 64 0 64 C0 42.88 0 21.76 0 0 Z " fill="#A10B2A" transform="translate(848,732)"/>
<path d="M0 0 C1.42626953 1.62646484 1.42626953 1.62646484 2.8828125 3.7109375 C3.41003906 4.46117187 3.93726563 5.21140625 4.48046875 5.984375 C5.02316406 6.77328125 5.56585937 7.5621875 6.125 8.375 C6.95064453 9.54675781 6.95064453 9.54675781 7.79296875 10.7421875 C11.85867592 16.57602777 11.85867592 16.57602777 13 20 C6.00635337 22.91401943 -1.22642342 24.66053658 -8.57714844 26.41894531 C-11.25380975 27.06086933 -13.9276368 27.71396613 -16.6015625 28.3671875 C-18.50508866 28.82861895 -20.40873336 29.28956172 -22.3125 29.75 C-23.22604248 29.97284668 -24.13958496 30.19569336 -25.08081055 30.42529297 C-25.93715088 30.63041504 -26.79349121 30.83553711 -27.67578125 31.046875 C-28.43802002 31.23088867 -29.20025879 31.41490234 -29.9855957 31.60449219 C-32 32 -32 32 -35 32 C-35 39.92 -35 47.84 -35 56 C-21.14 56 -7.28 56 7 56 C7 63.26 7 70.52 7 78 C-6.86 78 -20.72 78 -35 78 C-35 88.23 -35 98.46 -35 109 C-21.14 109 -7.28 109 7 109 C7 116.26 7 123.52 7 131 C-7.19 131 -21.38 131 -36 131 C-36 135.62 -36 140.24 -36 145 C-43.26 145 -50.52 145 -58 145 C-58 101.44 -58 57.88 -58 13 C-50.08 11.68 -42.16 10.36 -34 9 C-23.99981055 6.3625874 -14.56260277 3.82781757 -5.14208984 -0.328125 C-3 -1 -3 -1 0 0 Z " fill="#A00827" transform="translate(531,729)"/>
<path d="M0 0 C23.1 0 46.2 0 70 0 C70 25.74 70 51.48 70 78 C62.74 78 55.48 78 48 78 C47.505 74.535 47.505 74.535 47 71 C38.42 71 29.84 71 21 71 C21 73.31 21 75.62 21 78 C14.07 78 7.14 78 0 78 C0 52.26 0 26.52 0 0 Z " fill="#A00626" transform="translate(906,807)"/>
<path d="M0 0 C22.77 0 45.54 0 69 0 C69 25.41 69 50.82 69 77 C61.74 77 54.48 77 47 77 C47 75.02 47 73.04 47 71 C39.08 71 31.16 71 23 71 C23 73.31 23 75.62 23 78 C15.41 78 7.82 78 0 78 C0 52.26 0 26.52 0 0 Z " fill="#A00525" transform="translate(824,807)"/>
<path d="M0 0 C19.47 0 38.94 0 59 0 C59 6.93 59 13.86 59 21 C39.53 21 20.06 21 0 21 C0 14.07 0 7.14 0 0 Z " fill="#FCF9FA" transform="translate(871,754)"/>
<path d="M0 0 C4.56736441 0.70062483 8.5699505 2.31270207 12.8125 4.0625 C13.50537109 4.34416016 14.19824219 4.62582031 14.91210938 4.91601562 C16.60967624 5.60674973 18.30506312 6.30283728 20 7 C19.59515425 13.43446328 17.22245127 17.83794542 13.9375 23.3125 C13.44596436 24.1475708 12.95442871 24.9826416 12.44799805 25.84301758 C8.76315776 31.99439595 4.797313 37.65285169 0 43 C-3.82504618 42.40949748 -5.94702408 40.64572278 -8.875 38.1875 C-11.7174935 35.83697653 -14.49803699 33.58307446 -17.625 31.625 C-18.40875 31.08875 -19.1925 30.5525 -20 30 C-20 29.34 -20 28.68 -20 28 C-18.33698868 26.66211027 -16.66967898 25.32955919 -15 24 C-8.79706111 16.71458746 -4.31480871 8.48129587 0 0 Z " fill="#9E0826" transform="translate(309,842)"/>
<path d="M0 0 C8.25 0 16.5 0 25 0 C25 10.23 25 20.46 25 31 C16.75 31 8.5 31 0 31 C0 20.77 0 10.54 0 0 Z " fill="#F7EDEE" transform="translate(846,827)"/>
<path d="M0 0 C5.76303063 24.77626887 5.76303063 24.77626887 6 36 C3.27172635 36.50534727 0.54255306 37.00443845 -2.1875 37.5 C-2.95642578 37.64308594 -3.72535156 37.78617188 -4.51757812 37.93359375 C-8.39421773 38.63238715 -12.041471 39.19039017 -16 39 C-16.04487549 38.42668945 -16.08975098 37.85337891 -16.13598633 37.26269531 C-17.27582957 22.55466587 -17.27582957 22.55466587 -20.4140625 8.1796875 C-21 6 -21 6 -21 3 C-20.08476562 2.86722656 -19.16953125 2.73445312 -18.2265625 2.59765625 C-17.03804688 2.42105469 -15.84953125 2.24445312 -14.625 2.0625 C-13.44164062 1.88847656 -12.25828125 1.71445312 -11.0390625 1.53515625 C-2.06610169 -0.04491525 -2.06610169 -0.04491525 0 0 Z " fill="#9D0A27" transform="translate(361,846)"/>
<path d="M0 0 C8.25 0 16.5 0 25 0 C25 9.9 25 19.8 25 30 C16.75 30 8.5 30 0 30 C0 20.1 0 10.2 0 0 Z " fill="#FBF6F7" transform="translate(928,828)"/>
<path d="M0 0 C24.75 0 49.5 0 75 0 C75 3.3 75 6.6 75 10 C50.25 10 25.5 10 0 10 C0 6.7 0 3.4 0 0 Z " fill="#F8EFF0" transform="translate(688,789)"/>
<path d="M0 0 C24.75 0 49.5 0 75 0 C75 3.3 75 6.6 75 10 C50.25 10 25.5 10 0 10 C0 6.7 0 3.4 0 0 Z " fill="#F7EBED" transform="translate(688,762)"/>
<path d="M0 0 C3.10861129 7.01500778 5.83361622 14.11657877 8.3125 21.375 C8.57885254 22.13538574 8.84520508 22.89577148 9.11962891 23.67919922 C10.54361006 27.92870305 11.31020027 31.45520539 11 36 C8.22970414 36.50314563 5.4588348 37.00263838 2.6875 37.5 C1.90181641 37.64308594 1.11613281 37.78617188 0.30664062 37.93359375 C-0.8293457 38.13662109 -0.8293457 38.13662109 -1.98828125 38.34375 C-2.68477783 38.46943359 -3.38127441 38.59511719 -4.09887695 38.72460938 C-6 39 -6 39 -9 39 C-9.16081055 38.42145264 -9.32162109 37.84290527 -9.48730469 37.24682617 C-13.3869461 22.98171768 -13.3869461 22.98171768 -18.3359375 9.05859375 C-19 7 -19 7 -19 3 C-18.24074219 2.86722656 -17.48148437 2.73445312 -16.69921875 2.59765625 C-15.70535156 2.42105469 -14.71148437 2.24445312 -13.6875 2.0625 C-12.70136719 1.88847656 -11.71523438 1.71445312 -10.69921875 1.53515625 C-2.6015625 -0.0703125 -2.6015625 -0.0703125 0 0 Z " fill="#9F0927" transform="translate(395,845)"/>
<path d="M0 0 C11.88 0 23.76 0 36 0 C33.93052724 4.13894553 31.43909422 6.82310988 28.1875 10 C27.66607422 10.52078125 27.14464844 11.0415625 26.60742188 11.578125 C25.09257041 13.07595566 23.55328544 14.54216786 22 16 C21.15050781 16.804375 20.30101562 17.60875 19.42578125 18.4375 C17 20 17 20 14.44140625 20.0390625 C7.73601959 17.18524994 3.16564341 8.33128682 0 2 C0 1.34 0 0.68 0 0 Z " fill="#F8EFF0" transform="translate(733,818)"/>
<path d="M0 0 C3.63 0 7.26 0 11 0 C11 6.6 11 13.2 11 20 C7.37 20 3.74 20 0 20 C0 13.4 0 6.8 0 0 Z " fill="#F7ECED" transform="translate(396,760)"/>
<path d="M0 0 C3.63 0 7.26 0 11 0 C11 6.6 11 13.2 11 20 C7.37 20 3.74 20 0 20 C0 13.4 0 6.8 0 0 Z " fill="#F3E1E3" transform="translate(365,760)"/>
<path d="M0 0 C3.63 0 7.26 0 11 0 C11 6.27 11 12.54 11 19 C7.37 19 3.74 19 0 19 C0 12.73 0 6.46 0 0 Z " fill="#FBF6F6" transform="translate(396,800)"/>
<path d="M0 0 C3.3 0 6.6 0 10 0 C10 6.6 10 13.2 10 20 C6.7 20 3.4 20 0 20 C0 13.4 0 6.8 0 0 Z " fill="#F8F0F1" transform="translate(366,800)"/>
<path d="M0 0 C3.3 0 6.6 0 10 0 C10 6.27 10 12.54 10 19 C6.7 19 3.4 19 0 19 C0 12.73 0 6.46 0 0 Z " fill="#FCF7F8" transform="translate(335,800)"/>
<path d="M0 0 C3.3 0 6.6 0 10 0 C10 6.27 10 12.54 10 19 C6.7 19 3.4 19 0 19 C0 12.73 0 6.46 0 0 Z " fill="#FAF3F4" transform="translate(335,760)"/>
<path d="M0 0 C0.33 0 0.66 0 1 0 C1.33 41.91 1.66 83.82 2 127 C6.95 127 11.9 127 17 127 C17.66 124.03 18.32 121.06 19 118 C19.33 118 19.66 118 20 118 C20.33 121.63 20.66 125.26 21 129 C13.74 129 6.48 129 -1 129 C-0.67 86.43 -0.34 43.86 0 0 Z " fill="#950018" transform="translate(474,745)"/>
<path d="M0 0 C1.89324687 2.83987031 2.42684829 4.25506753 3.0703125 7.4921875 C3.33134766 8.79736328 3.33134766 8.79736328 3.59765625 10.12890625 C3.77167969 11.03511719 3.94570313 11.94132812 4.125 12.875 C4.30675781 13.77347656 4.48851562 14.67195313 4.67578125 15.59765625 C5.50436587 19.81533886 6.09847955 23.68697804 6 28 C4.35 28.66 2.7 29.32 1 30 C0.37722531 19.99112106 -0.17707265 10.03411669 0 0 Z " fill="#A61B38" transform="translate(303,437)"/>
<path d="M0 0 C0.33 0 0.66 0 1 0 C1 8.91 1 17.82 1 27 C0.34 26.01 -0.32 25.02 -1 24 C-1.12375 24.7425 -1.2475 25.485 -1.375 26.25 C-1.95486701 28.80141485 -2.73708739 30.7267573 -4 33 C-5.34985763 29.2089105 -4.70636529 26.17198259 -4.00390625 22.265625 C-3.77509766 20.97011719 -3.54628906 19.67460937 -3.31054688 18.33984375 C-3.06137597 16.97652995 -2.81202472 15.61324909 -2.5625 14.25 C-2.31630234 12.87122834 -2.07085116 11.49232317 -1.82617188 10.11328125 C-1.22478547 6.74080062 -0.61578442 3.36987628 0 0 Z " fill="#B33B50" transform="translate(441,432)"/>
<path d="M0 0 C0.99 0 1.98 0 3 0 C4.31965723 3.95897169 4 7.868908 4 12 C4.185625 12.70125 4.37125 13.4025 4.5625 14.125 C5.20609757 16.8832753 4.56045077 19.26001843 4 22 C3.67 22 3.34 22 3 22 C2.01 14.74 1.02 7.48 0 0 Z " fill="#AA2B42" transform="translate(349,396)"/>
<path d="M0 0 C0.185625 0.9590625 0.185625 0.9590625 0.375 1.9375 C0.684375 2.9584375 0.684375 2.9584375 1 4 C1.66 4.33 2.32 4.66 3 5 C2.34 6.98 1.68 8.96 1 11 C0.34 11 -0.32 11 -1 11 C-0.67 12.98 -0.34 14.96 0 17 C-0.99 17 -1.98 17 -3 17 C-2.25339288 11.27601207 -1.17122859 5.65146223 0 0 Z " fill="#A82D40" transform="translate(741,587)"/>
<path d="M0 0 C5.28 0 10.56 0 16 0 C16 0.33 16 0.66 16 1 C10.555 1.495 10.555 1.495 5 2 C4.67 2.99 4.34 3.98 4 5 C3.34 5 2.68 5 2 5 C1.67 5.99 1.34 6.98 1 8 C0.67 5.36 0.34 2.72 0 0 Z " fill="#A5243B" transform="translate(579,844)"/>
<path d="M0 0 C0.33 0 0.66 0 1 0 C1.66 6.27 2.32 12.54 3 19 C1.68 18.67 0.36 18.34 -1 18 C-0.9278125 17.3709375 -0.855625 16.741875 -0.78125 16.09375 C-0.19534084 10.69036555 0.10062919 5.43397617 0 0 Z " fill="#AB3044" transform="translate(364,863)"/>
<path d="M0 0 C0.66 0.66 1.32 1.32 2 2 C1.9765625 4.8203125 1.9765625 4.8203125 1.625 8.125 C1.51414062 9.22070312 1.40328125 10.31640625 1.2890625 11.4453125 C1.19367188 12.28835938 1.09828125 13.13140625 1 14 C0.34 13.67 -0.32 13.34 -1 13 C-1.4140625 10.49609375 -1.4140625 10.49609375 -1.625 7.4375 C-1.69976562 6.42558594 -1.77453125 5.41367187 -1.8515625 4.37109375 C-1.90054687 3.58863281 -1.94953125 2.80617188 -2 2 C-1.34 2 -0.68 2 0 2 C0 1.34 0 0.68 0 0 Z " fill="#A82539" transform="translate(373,513)"/>
<path d="M0 0 C0.66 0 1.32 0 2 0 C3.35439668 2.70879335 3.06501451 5.00933268 3 8 C2.34 7.01 1.68 6.02 1 5 C0.87625 5.7425 0.7525 6.485 0.625 7.25 C0.04513299 9.80141485 -0.73708739 11.7267573 -2 14 C-3.25127906 10.45332822 -2.72285053 8.27746562 -1.5625 4.75 C-1.27503906 3.85796875 -0.98757813 2.9659375 -0.69140625 2.046875 C-0.46324219 1.37140625 -0.23507812 0.6959375 0 0 Z " fill="#A5223B" transform="translate(439,451)"/>
<path d="M0 0 C-0.54226981 3.79588866 -2.20127563 5.47211993 -5 8 C-5.66 6.35 -6.32 4.7 -7 3 C-2.25 0 -2.25 0 0 0 Z " fill="#AC1E38" transform="translate(419,846)"/>
<path d="M0 0 C-1 2 -1 2 -2.578125 2.62109375 C-5.96917345 3.15162875 -9.32857318 3.10454022 -12.75 3.0625 C-13.44738281 3.05798828 -14.14476562 3.05347656 -14.86328125 3.04882812 C-16.57555803 3.0371002 -18.28779033 3.01916653 -20 3 C-20 2.67 -20 2.34 -20 2 C-17.79248152 1.66131223 -15.58394089 1.32928311 -13.375 1 C-12.14523437 0.814375 -10.91546875 0.62875 -9.6484375 0.4375 C-6.3833973 0.04597484 -3.28287549 -0.08080924 0 0 Z " fill="#AA293C" transform="translate(672,667)"/>
<path d="M0 0 C0 3 0 3 -1 6 C-1.66 6 -2.32 6 -3 6 C-3 6.66 -3 7.32 -3 8 C-3.99 8.66 -4.98 9.32 -6 10 C-6.99 9.67 -7.98 9.34 -9 9 C-6.03 6.03 -3.06 3.06 0 0 Z " fill="#A7203A" transform="translate(304,744)"/>
<path d="M0 0 C0.33 0.66 0.66 1.32 1 2 C1.33 1.34 1.66 0.68 2 0 C5.375 0.75 5.375 0.75 9 2 C10.2265625 4.078125 10.2265625 4.078125 11 6 C9.20620902 5.55005243 7.41501072 5.08975857 5.625 4.625 C4.62726562 4.36976563 3.62953125 4.11453125 2.6015625 3.8515625 C0 3 0 3 -2 1 C-1.34 0.67 -0.68 0.34 0 0 Z " fill="#B33146" transform="translate(776,878)"/>
<path d="M0 0 C1 4 1 4 0.00390625 5.703125 C-1.33072917 7.13541667 -2.66536458 8.56770833 -4 10 C-4.99 9.67 -5.98 9.34 -7 9 C-4.69 6.03 -2.38 3.06 0 0 Z " fill="#A61C35" transform="translate(917,635)"/>
<path d="M0 0 C1.65 0 3.3 0 5 0 C3.92598892 2.91517292 3.22189824 4.77810176 1 7 C-1 4 -1 4 -0.625 1.8125 C-0.41875 1.214375 -0.2125 0.61625 0 0 Z " fill="#AB1733" transform="translate(801,863)"/>
<path d="M0 0 C0.66 0.99 1.32 1.98 2 3 C1.67 3.99 1.34 4.98 1 6 C0.34 6 -0.32 6 -1 6 C-1 7.65 -1 9.3 -1 11 C-1.99 11.33 -2.98 11.66 -4 12 C-2.87204037 7.89100419 -1.66489182 3.92438786 0 0 Z " fill="#AF3249" transform="translate(737,606)"/>
<path d="M0 0 C0.33 0 0.66 0 1 0 C1 2.31 1 4.62 1 7 C-0.65 7.33 -2.3 7.66 -4 8 C-4.33 7.34 -4.66 6.68 -5 6 C-4.34 6 -3.68 6 -3 6 C-2.67 5.01 -2.34 4.02 -2 3 C-1.34 2.01 -0.68 1.02 0 0 Z " fill="#A8233A" transform="translate(724,862)"/>
<path d="M0 0 C1.70884005 1.62339805 3.37446717 3.29319053 5 5 C5 5.66 5 6.32 5 7 C3.68 7.33 2.36 7.66 1 8 C-0.35439668 5.29120665 -0.06501451 2.99066732 0 0 Z " fill="#AD243F" transform="translate(539,742)"/>
<path d="M0 0 C-0.33 1.32 -0.66 2.64 -1 4 C-3.92879371 3.37240135 -6.36095629 2.41377341 -9 1 C-5.8035914 -0.06546953 -3.34252724 -0.07427838 0 0 Z " fill="#F2DFE3" transform="translate(318,840)"/>
<path d="M0 0 C1.65 0 3.3 0 5 0 C3.84826645 2.46800047 2.95216435 4.04783565 1 6 C0 5 0 5 -0.0625 2.4375 C-0.041875 1.633125 -0.02125 0.82875 0 0 Z " fill="#B2293F" transform="translate(338,727)"/>
<path d="M0 0 C2.97 0 5.94 0 9 0 C8.67 0.66 8.34 1.32 8 2 C5.67843403 2.40729228 3.3431213 2.74438677 1 3 C0.67 2.01 0.34 1.02 0 0 Z " fill="#AB0925" transform="translate(928,858)"/>
<path d="M0 0 C0.66 0.66 1.32 1.32 2 2 C1.9765625 5.2578125 1.9765625 5.2578125 1.625 9.125 C1.51414062 10.40632812 1.40328125 11.68765625 1.2890625 13.0078125 C1.19367187 13.99523437 1.09828125 14.98265625 1 16 C0.67 16 0.34 16 0 16 C0 11.38 0 6.76 0 2 C-0.66 1.67 -1.32 1.34 -2 1 C-1.34 0.67 -0.68 0.34 0 0 Z " fill="#DDA1AC" transform="translate(724,846)"/>
<path d="M0 0 C0 0.66 0 1.32 0 2 C-3.57644848 3.2380014 -6.33694766 2.74926071 -10 2 C-3.75 -1.125 -3.75 -1.125 0 0 Z " fill="#AB2F44" transform="translate(511,736)"/>
<path d="M0 0 C0.66 0 1.32 0 2 0 C2 0.99 2 1.98 2 3 C-1.96 3 -5.92 3 -10 3 C-10 2.67 -10 2.34 -10 2 C-9.04287109 1.90912109 -9.04287109 1.90912109 -8.06640625 1.81640625 C-6.82697266 1.69072266 -6.82697266 1.69072266 -5.5625 1.5625 C-4.73878906 1.48128906 -3.91507812 1.40007813 -3.06640625 1.31640625 C-1.01337975 1.21069185 -1.01337975 1.21069185 0 0 Z " fill="#A1152F" transform="translate(439,757)"/>
<path d="M0 0 C0.66 0.33 1.32 0.66 2 1 C0.125 5.75 0.125 5.75 -1 8 C-1.66 8 -2.32 8 -3 8 C-1.125 2.25 -1.125 2.25 0 0 Z " fill="#AA2840" transform="translate(923,624)"/>
<path d="M0 0 C2.60018816 3.90028225 2.15085514 7.47434569 2 12 C1.67 12 1.34 12 1 12 C1 10.35 1 8.7 1 7 C0.34 7 -0.32 7 -1 7 C-0.67 4.69 -0.34 2.38 0 0 Z " fill="#B94659" transform="translate(327,564)"/>
</svg>
